<svg fill="none" height="400" viewBox="0 0 400 400" width="400" xmlns="http://www.w3.org/2000/svg"><g stroke="#000" stroke-linecap="round" stroke-linejoin="round" stroke-opacity=".9" stroke-width="16"><path d="m151.066 324.654c7.201-17.672-8.599-64.214 5.686-78.411 14.478-14.385 127.3-4.833 128.94-3.207 2.857 2.839 1.144 77.079-3.102 85.519-4.246 8.441-116.046 3.591-132.043 2.266"/><path d="m114.394 316.342c0-25.877-11.072-77.997 14.409-97.192 9.242-6.962 122.048-7.304 126.623-2.709 10.728 10.771 16.803 16.561 29.297 25.348"/><path d="m117.15 316.342c9.962 6.027 21.127 10.099 31.988 13.908"/><path d="m133.144 276.797c-3.477-1.961-5.289-2.155-7.649-3.511"/><path d="m228.412 224.841c-23.433-.005-47.045-1.248-70.93 1.139" opacity=".503384"/><path d="m227.473 181.504c-28.164-6.007-50.807 4.948-70.751 0-2.218-.552.967-46.661 1.185-50.988.776-15.364-20.509-33.1846-7.115-50.2001 23.273-29.5678 36.271 0 48.268 0 5.243 0 32.906-23.7192 46.992-7.8443 20.77 23.4063-11.272 32.5364-14.086 40.9094-3.562 10.608-1.838 36.03-.144 46.943"/><path d="m151.92 139.65c-15.173.699-26.959-4.316-34.77-16.625"/><path d="m231.193 142.147c21.783-2.987 31.306-8.17 37.551-16.341"/></g></svg>